# xmcd
#
# Track frame offsets: 
#        150
#        17677
#        31682
#        46550
#        63937
#        80382
#        96205
#        112167
#        126637
#        143260
#        159107
#
# Disc length: 2332 seconds
#
# Revision: 5
# Processed by: cddbd v1.5.2PL0 Copyright (c) Steve Scherf et al.
# Submitted via: ExactAudioCopy v1.1
#
DISCID=7c091a0b
DTITLE=近藤真彦 - 近藤真彦 THE BEST
DYEAR=1987
DGENRE=J-Pop
TTITLE0=スニーカーぶる~す（郭小霖《愛情蝙蝠侠》原曲）
TTITLE1=ヨコハマ・チーク（于楓《愛在旋轉》原曲）
TTITLE2=ブルージーンズメモリー（蔡楓華《生命的動力》原曲）
TTITLE3=ギンギラギンにさりげなく（曹西平《一切有我》原曲）
TTITLE4=情熱☆熱風　せれなーで（梅艷芳《魅力的散發》原曲）
TTITLE5=ふられてBANZAI
TTITLE6=ハイティーン・ブギ
TTITLE7=ホレたぜ!乾杯
TTITLE8=ミッドナイト・ステーション
TTITLE9=真夏の一秒
TTITLE10=ためいきロ・カ・ビ・リー
EXTD=
EXTT0=
EXTT1=
EXTT2=
EXTT3=
EXTT4=
EXTT5=
EXTT6=
EXTT7=
EXTT8=
EXTT9=
EXTT10=
PLAYORDER=
